<?xml version="1.0"?>
<!-- Generated by svgof -->
<svg width="36.550mm" height="27.950mm"
     viewBox="81.975 57.075 36.550 27.950"
     xmlns="http://www.w3.org/2000/svg"
     xmlns:xlink="http://www.w3.org/1999/xlink">
<rect x="81.975" y="57.075" width="36.550" height="27.950" fill="white" />
<polyline points="82.975,84.000 82.975,58.100 82.977,58.090 82.982,58.082 82.990,58.077 83.000,58.075 117.500,58.075 117.510,58.077 117.518,58.082 117.523,58.090 117.525,58.100 117.525,84.000 117.523,84.010 117.518,84.018 117.510,84.023 117.500,84.025 83.000,84.025 82.990,84.023 82.982,84.018 82.977,84.010 82.975,84.000" fill="cyan" stroke="blue" stroke-width="0.100" />
<polyline points="117.475,58.125 83.025,58.125 83.025,83.975 117.475,83.975 117.475,58.125" fill="white" stroke="red" stroke-width="0.100" />
<polyline points="90.765,69.255 90.765,67.905 92.115,67.905 92.115,68.330 97.100,68.330 97.139,68.333 97.177,68.342 97.213,68.357 97.247,68.378 97.277,68.403 97.789,68.915 98.560,68.915 98.617,68.926 98.666,68.959 98.699,69.008 98.710,69.065 98.710,69.365 98.699,69.422 98.666,69.471 98.617,69.504 98.560,69.515 96.910,69.515 96.853,69.504 96.804,69.471 96.771,69.422 96.760,69.365 96.760,69.065 96.771,69.008 96.804,68.959 96.853,68.926 96.910,68.915 97.081,68.915 96.996,68.830 92.115,68.830 92.115,69.255 90.765,69.255" fill="cyan" stroke="blue" stroke-width="0.100" />
<polyline points="90.766,70.619 90.765,70.580 90.766,70.541 90.770,70.502 90.775,70.463 90.783,70.424 90.793,70.386 90.806,70.349 90.820,70.313 90.837,70.277 90.855,70.242 90.876,70.209 90.899,70.177 90.923,70.146 90.949,70.117 90.977,70.089 91.006,70.063 91.037,70.039 91.069,70.016 91.102,69.995 91.137,69.977 91.173,69.960 91.209,69.946 91.246,69.933 91.284,69.923 91.323,69.915 91.362,69.910 91.401,69.906 91.440,69.905 91.479,69.906 91.518,69.910 91.557,69.915 91.596,69.923 91.634,69.933 91.671,69.946 91.707,69.960 91.743,69.977 91.778,69.995 91.811,70.016 91.843,70.039 91.874,70.063 91.903,70.089 91.931,70.117 91.957,70.146 91.981,70.177 92.004,70.209 92.020,70.235 96.800,70.235 96.804,70.229 96.853,70.196 96.910,70.185 98.560,70.185 98.617,70.196 98.666,70.229 98.699,70.278 98.710,70.335 98.710,70.635 98.699,70.692 98.666,70.741 98.617,70.774 98.560,70.785 96.910,70.785 96.853,70.774 96.804,70.741 96.800,70.735 92.097,70.735 92.097,70.736 92.087,70.774 92.074,70.811 92.060,70.847 92.043,70.883 92.025,70.918 92.004,70.951 91.981,70.983 91.957,71.014 91.931,71.043 91.903,71.071 91.874,71.097 91.843,71.121 91.811,71.144 91.778,71.165 91.743,71.183 91.707,71.200 91.671,71.214 91.634,71.227 91.596,71.237 91.557,71.245 91.518,71.250 91.479,71.254 91.440,71.255 91.401,71.254 91.362,71.250 91.323,71.245 91.284,71.237 91.246,71.227 91.209,71.214 91.173,71.200 91.137,71.183 91.102,71.165 91.069,71.144 91.037,71.121 91.006,71.097 90.977,71.071 90.949,71.043 90.923,71.014 90.899,70.983 90.876,70.951 90.855,70.918 90.837,70.883 90.820,70.847 90.806,70.811 90.793,70.774 90.783,70.736 90.775,70.697 90.770,70.658 90.766,70.619" fill="cyan" stroke="blue" stroke-width="0.100" />
<polyline points="90.766,72.619 90.765,72.580 90.766,72.541 90.770,72.502 90.775,72.463 90.783,72.424 90.793,72.386 90.806,72.349 90.820,72.313 90.837,72.277 90.855,72.242 90.876,72.209 90.899,72.177 90.923,72.146 90.949,72.117 90.977,72.089 91.006,72.063 91.037,72.039 91.069,72.016 91.102,71.995 91.137,71.977 91.173,71.960 91.209,71.946 91.246,71.933 91.284,71.923 91.323,71.915 91.362,71.910 91.401,71.906 91.440,71.905 91.479,71.906 91.518,71.910 91.557,71.915 91.596,71.923 91.634,71.933 91.671,71.946 91.707,71.960 91.743,71.977 91.778,71.995 91.811,72.016 91.843,72.039 91.874,72.063 91.903,72.089 91.931,72.117 91.957,72.146 91.981,72.177 92.004,72.209 92.025,72.242 92.043,72.277 92.060,72.313 92.067,72.330 96.001,72.330 96.753,71.578 96.768,71.566 96.771,71.548 96.804,71.499 96.853,71.466 96.910,71.455 98.560,71.455 98.617,71.466 98.666,71.499 98.699,71.548 98.710,71.605 98.710,71.905 98.699,71.962 98.666,72.011 98.617,72.044 98.560,72.055 96.983,72.055 96.282,72.757 96.252,72.782 96.218,72.803 96.182,72.818 96.144,72.827 96.105,72.830 92.224,72.830 92.218,72.837 92.188,72.862 92.154,72.883 92.118,72.898 92.080,72.907 92.041,72.910 92.029,72.910 92.025,72.918 92.004,72.951 91.981,72.983 91.957,73.014 91.931,73.043 91.903,73.071 91.874,73.097 91.843,73.121 91.811,73.144 91.778,73.165 91.743,73.183 91.707,73.200 91.671,73.214 91.634,73.227 91.596,73.237 91.557,73.245 91.518,73.250 91.479,73.254 91.440,73.255 91.401,73.254 91.362,73.250 91.323,73.245 91.284,73.237 91.246,73.227 91.209,73.214 91.173,73.200 91.137,73.183 91.102,73.165 91.069,73.144 91.037,73.121 91.006,73.097 90.977,73.071 90.949,73.043 90.923,73.014 90.899,72.983 90.876,72.951 90.855,72.918 90.837,72.883 90.820,72.847 90.806,72.811 90.793,72.774 90.783,72.736 90.775,72.697 90.770,72.658 90.766,72.619" fill="cyan" stroke="blue" stroke-width="0.100" />
<polyline points="90.766,74.619 90.765,74.580 90.766,74.541 90.770,74.502 90.775,74.463 90.783,74.424 90.793,74.386 90.806,74.349 90.820,74.313 90.837,74.277 90.855,74.242 90.876,74.209 90.899,74.177 90.923,74.146 90.949,74.117 90.977,74.089 91.006,74.063 91.037,74.039 91.069,74.016 91.102,73.995 91.137,73.977 91.173,73.960 91.209,73.946 91.246,73.933 91.284,73.923 91.323,73.915 91.362,73.910 91.401,73.906 91.440,73.905 91.479,73.906 91.518,73.910 91.557,73.915 91.596,73.923 91.634,73.933 91.671,73.946 91.707,73.960 91.743,73.977 91.778,73.995 91.811,74.016 91.843,74.039 91.874,74.063 91.903,74.089 91.931,74.117 91.957,74.146 91.981,74.177 92.004,74.209 92.025,74.242 92.043,74.277 92.060,74.313 92.067,74.330 96.076,74.330 97.081,73.325 96.910,73.325 96.853,73.314 96.804,73.281 96.771,73.232 96.760,73.175 96.760,72.875 96.771,72.818 96.804,72.769 96.853,72.736 96.910,72.725 98.560,72.725 98.617,72.736 98.666,72.769 98.699,72.818 98.710,72.875 98.710,73.175 98.699,73.232 98.666,73.281 98.617,73.314 98.560,73.325 97.789,73.325 96.357,74.757 96.327,74.782 96.293,74.803 96.257,74.818 96.219,74.827 96.180,74.830 92.067,74.830 92.060,74.847 92.043,74.883 92.025,74.918 92.004,74.951 91.981,74.983 91.957,75.014 91.931,75.043 91.903,75.071 91.874,75.097 91.843,75.121 91.811,75.144 91.778,75.165 91.743,75.183 91.707,75.200 91.671,75.214 91.634,75.227 91.596,75.237 91.557,75.245 91.518,75.250 91.479,75.254 91.440,75.255 91.401,75.254 91.362,75.250 91.323,75.245 91.284,75.237 91.246,75.227 91.209,75.214 91.173,75.200 91.137,75.183 91.102,75.165 91.069,75.144 91.037,75.121 91.006,75.097 90.977,75.071 90.949,75.043 90.923,75.014 90.899,74.983 90.876,74.951 90.855,74.918 90.837,74.883 90.820,74.847 90.806,74.811 90.793,74.774 90.783,74.736 90.775,74.697 90.770,74.658 90.766,74.619" fill="cyan" stroke="blue" stroke-width="0.100" />
<polyline points="101.710,69.365 101.710,69.065 101.721,69.008 101.754,68.959 101.803,68.926 101.860,68.915 102.631,68.915 103.143,68.403 103.173,68.378 103.207,68.357 103.243,68.342 103.281,68.333 103.320,68.330 108.593,68.330 108.600,68.313 108.617,68.277 108.635,68.242 108.656,68.209 108.679,68.177 108.703,68.146 108.729,68.117 108.757,68.089 108.786,68.063 108.817,68.039 108.849,68.016 108.882,67.995 108.917,67.977 108.953,67.960 108.989,67.946 109.026,67.933 109.064,67.923 109.103,67.915 109.142,67.910 109.181,67.906 109.220,67.905 109.259,67.906 109.298,67.910 109.337,67.915 109.376,67.923 109.414,67.933 109.451,67.946 109.487,67.960 109.523,67.977 109.558,67.995 109.591,68.016 109.623,68.039 109.654,68.063 109.683,68.089 109.711,68.117 109.737,68.146 109.761,68.177 109.784,68.209 109.805,68.242 109.823,68.277 109.840,68.313 109.854,68.349 109.867,68.386 109.877,68.424 109.885,68.463 109.890,68.502 109.894,68.541 109.895,68.580 109.894,68.619 109.890,68.658 109.885,68.697 109.877,68.736 109.867,68.774 109.854,68.811 109.840,68.847 109.823,68.883 109.805,68.918 109.784,68.951 109.761,68.983 109.737,69.014 109.711,69.043 109.683,69.071 109.654,69.097 109.623,69.121 109.591,69.144 109.558,69.165 109.523,69.183 109.487,69.200 109.451,69.214 109.414,69.227 109.376,69.237 109.337,69.245 109.298,69.250 109.259,69.254 109.220,69.255 109.181,69.254 109.142,69.250 109.103,69.245 109.064,69.237 109.026,69.227 108.989,69.214 108.953,69.200 108.917,69.183 108.882,69.165 108.849,69.144 108.817,69.121 108.786,69.097 108.757,69.071 108.729,69.043 108.703,69.014 108.679,68.983 108.656,68.951 108.635,68.918 108.617,68.883 108.600,68.847 108.593,68.830 103.424,68.830 103.339,68.915 103.510,68.915 103.567,68.926 103.616,68.959 103.649,69.008 103.660,69.065 103.660,69.365 103.649,69.422 103.616,69.471 103.567,69.504 103.510,69.515 101.860,69.515 101.803,69.504 101.754,69.471 101.721,69.422 101.710,69.365" fill="cyan" stroke="blue" stroke-width="0.100" />
<polyline points="101.710,70.635 101.710,70.335 101.721,70.278 101.754,70.229 101.803,70.196 101.860,70.185 103.510,70.185 103.567,70.196 103.616,70.229 103.620,70.235 108.640,70.235 108.656,70.209 108.679,70.177 108.703,70.146 108.729,70.117 108.757,70.089 108.786,70.063 108.817,70.039 108.849,70.016 108.882,69.995 108.917,69.977 108.953,69.960 108.989,69.946 109.026,69.933 109.064,69.923 109.103,69.915 109.142,69.910 109.181,69.906 109.220,69.905 109.259,69.906 109.298,69.910 109.337,69.915 109.376,69.923 109.414,69.933 109.451,69.946 109.487,69.960 109.523,69.977 109.558,69.995 109.591,70.016 109.623,70.039 109.654,70.063 109.683,70.089 109.711,70.117 109.737,70.146 109.761,70.177 109.784,70.209 109.805,70.242 109.823,70.277 109.840,70.313 109.854,70.349 109.867,70.386 109.877,70.424 109.885,70.463 109.890,70.502 109.894,70.541 109.895,70.580 109.894,70.619 109.890,70.658 109.885,70.697 109.877,70.736 109.867,70.774 109.854,70.811 109.840,70.847 109.823,70.883 109.805,70.918 109.784,70.951 109.761,70.983 109.737,71.014 109.711,71.043 109.683,71.071 109.654,71.097 109.623,71.121 109.591,71.144 109.558,71.165 109.523,71.183 109.487,71.200 109.451,71.214 109.414,71.227 109.376,71.237 109.337,71.245 109.298,71.250 109.259,71.254 109.220,71.255 109.181,71.254 109.142,71.250 109.103,71.245 109.064,71.237 109.026,71.227 108.989,71.214 108.953,71.200 108.917,71.183 108.882,71.165 108.849,71.144 108.817,71.121 108.786,71.097 108.757,71.071 108.729,71.043 108.703,71.014 108.679,70.983 108.656,70.951 108.635,70.918 108.617,70.883 108.600,70.847 108.586,70.811 108.573,70.774 108.563,70.736 108.563,70.735 103.620,70.735 103.616,70.741 103.567,70.774 103.510,70.785 101.860,70.785 101.803,70.774 101.754,70.741 101.721,70.692 101.710,70.635" fill="cyan" stroke="blue" stroke-width="0.100" />
<polyline points="101.710,71.905 101.710,71.605 101.721,71.548 101.754,71.499 101.803,71.466 101.860,71.455 103.510,71.455 103.567,71.466 103.616,71.499 103.620,71.505 103.660,71.505 103.699,71.508 103.737,71.517 103.773,71.532 103.807,71.553 103.837,71.578 104.589,72.330 108.593,72.330 108.600,72.313 108.617,72.277 108.635,72.242 108.656,72.209 108.679,72.177 108.703,72.146 108.729,72.117 108.757,72.089 108.786,72.063 108.817,72.039 108.849,72.016 108.882,71.995 108.917,71.977 108.953,71.960 108.989,71.946 109.026,71.933 109.064,71.923 109.103,71.915 109.142,71.910 109.181,71.906 109.220,71.905 109.259,71.906 109.298,71.910 109.337,71.915 109.376,71.923 109.414,71.933 109.451,71.946 109.487,71.960 109.523,71.977 109.558,71.995 109.591,72.016 109.623,72.039 109.654,72.063 109.683,72.089 109.711,72.117 109.737,72.146 109.761,72.177 109.784,72.209 109.805,72.242 109.823,72.277 109.840,72.313 109.854,72.349 109.867,72.386 109.877,72.424 109.885,72.463 109.890,72.502 109.894,72.541 109.895,72.580 109.894,72.619 109.890,72.658 109.885,72.697 109.877,72.736 109.867,72.774 109.854,72.811 109.840,72.847 109.823,72.883 109.805,72.918 109.784,72.951 109.761,72.983 109.737,73.014 109.711,73.043 109.683,73.071 109.654,73.097 109.623,73.121 109.591,73.144 109.558,73.165 109.523,73.183 109.487,73.200 109.451,73.214 109.414,73.227 109.376,73.237 109.337,73.245 109.298,73.250 109.259,73.254 109.220,73.255 109.181,73.254 109.142,73.250 109.103,73.245 109.064,73.237 109.026,73.227 108.989,73.214 108.953,73.200 108.917,73.183 108.882,73.165 108.849,73.144 108.817,73.121 108.786,73.097 108.757,73.071 108.729,73.043 108.703,73.014 108.679,72.983 108.656,72.951 108.635,72.918 108.617,72.883 108.600,72.847 108.593,72.830 104.485,72.830 104.446,72.827 104.408,72.818 104.372,72.803 104.338,72.782 104.308,72.757 103.584,72.033 103.567,72.044 103.510,72.055 101.860,72.055 101.803,72.044 101.754,72.011 101.721,71.962 101.710,71.905" fill="cyan" stroke="blue" stroke-width="0.100" />
<polyline points="101.710,73.175 101.710,72.875 101.721,72.818 101.754,72.769 101.803,72.736 101.860,72.725 103.510,72.725 103.567,72.736 103.616,72.769 103.649,72.818 103.660,72.875 103.660,73.175 103.649,73.232 103.616,73.281 103.567,73.314 103.510,73.325 103.339,73.325 104.344,74.330 108.545,74.330 108.545,73.905 109.895,73.905 109.895,75.255 108.545,75.255 108.545,74.830 104.240,74.830 104.201,74.827 104.163,74.818 104.127,74.803 104.093,74.782 104.063,74.757 102.631,73.325 101.860,73.325 101.803,73.314 101.754,73.281 101.721,73.232 101.710,73.175" fill="cyan" stroke="blue" stroke-width="0.100" />
<polyline points="98.445,68.950 98.675,69.180" fill="none" stroke="green" stroke-width="0.100" />
<polyline points="98.021,68.950 98.546,69.475" fill="none" stroke="green" stroke-width="0.100" />
<polyline points="97.012,68.365 98.126,69.480" fill="none" stroke="green" stroke-width="0.100" />
<polyline points="96.588,68.365 97.702,69.480" fill="none" stroke="green" stroke-width="0.100" />
<polyline points="96.163,68.365 96.593,68.795" fill="none" stroke="green" stroke-width="0.100" />
<polyline points="96.820,69.022 97.278,69.480" fill="none" stroke="green" stroke-width="0.100" />
<polyline points="95.739,68.365 96.168,68.795" fill="none" stroke="green" stroke-width="0.100" />
<polyline points="96.801,69.427 96.848,69.474" fill="none" stroke="green" stroke-width="0.100" />
<polyline points="95.315,68.365 95.744,68.795" fill="none" stroke="green" stroke-width="0.100" />
<polyline points="94.891,68.365 95.320,68.795" fill="none" stroke="green" stroke-width="0.100" />
<polyline points="94.466,68.365 94.896,68.795" fill="none" stroke="green" stroke-width="0.100" />
<polyline points="94.042,68.365 94.471,68.795" fill="none" stroke="green" stroke-width="0.100" />
<polyline points="93.618,68.365 94.047,68.795" fill="none" stroke="green" stroke-width="0.100" />
<polyline points="93.194,68.365 93.623,68.795" fill="none" stroke="green" stroke-width="0.100" />
<polyline points="92.769,68.365 93.199,68.795" fill="none" stroke="green" stroke-width="0.100" />
<polyline points="91.920,67.940 92.080,68.100" fill="none" stroke="green" stroke-width="0.100" />
<polyline points="92.345,68.365 92.774,68.795" fill="none" stroke="green" stroke-width="0.100" />
<polyline points="91.496,67.940 92.350,68.795" fill="none" stroke="green" stroke-width="0.100" />
<polyline points="91.071,67.940 92.080,68.949" fill="none" stroke="green" stroke-width="0.100" />
<polyline points="90.800,68.094 91.926,69.220" fill="none" stroke="green" stroke-width="0.100" />
<polyline points="90.800,68.518 91.502,69.220" fill="none" stroke="green" stroke-width="0.100" />
<polyline points="90.800,68.942 91.078,69.220" fill="none" stroke="green" stroke-width="0.100" />
<polyline points="98.445,70.220 98.675,70.450" fill="none" stroke="green" stroke-width="0.100" />
<polyline points="98.021,70.220 98.546,70.745" fill="none" stroke="green" stroke-width="0.100" />
<polyline points="97.597,70.220 98.126,70.750" fill="none" stroke="green" stroke-width="0.100" />
<polyline points="97.173,70.220 97.702,70.750" fill="none" stroke="green" stroke-width="0.100" />
<polyline points="96.798,70.270 97.278,70.750" fill="none" stroke="green" stroke-width="0.100" />
<polyline points="96.374,70.270 96.848,70.744" fill="none" stroke="green" stroke-width="0.100" />
<polyline points="95.950,70.270 96.379,70.700" fill="none" stroke="green" stroke-width="0.100" />
<polyline points="95.526,70.270 95.955,70.700" fill="none" stroke="green" stroke-width="0.100" />
<polyline points="95.101,70.270 95.531,70.700" fill="none" stroke="green" stroke-width="0.100" />
<polyline points="94.677,70.270 95.106,70.700" fill="none" stroke="green" stroke-width="0.100" />
<polyline points="94.253,70.270 94.682,70.700" fill="none" stroke="green" stroke-width="0.100" />
<polyline points="93.829,70.270 94.258,70.700" fill="none" stroke="green" stroke-width="0.100" />
<polyline points="93.404,70.270 93.834,70.700" fill="none" stroke="green" stroke-width="0.100" />
<polyline points="92.980,70.270 93.409,70.700" fill="none" stroke="green" stroke-width="0.100" />
<polyline points="92.556,70.270 92.985,70.700" fill="none" stroke="green" stroke-width="0.100" />
<polyline points="92.131,70.270 92.561,70.700" fill="none" stroke="green" stroke-width="0.100" />
<polyline points="91.384,69.947 92.136,70.700" fill="none" stroke="green" stroke-width="0.100" />
<polyline points="91.081,70.068 91.952,70.939" fill="none" stroke="green" stroke-width="0.100" />
<polyline points="90.882,70.294 91.726,71.138" fill="none" stroke="green" stroke-width="0.100" />
<polyline points="90.801,70.637 91.383,71.219" fill="none" stroke="green" stroke-width="0.100" />
<polyline points="98.445,71.490 98.675,71.720" fill="none" stroke="green" stroke-width="0.100" />
<polyline points="98.021,71.490 98.546,72.015" fill="none" stroke="green" stroke-width="0.100" />
<polyline points="97.597,71.490 98.126,72.020" fill="none" stroke="green" stroke-width="0.100" />
<polyline points="97.173,71.490 97.702,72.020" fill="none" stroke="green" stroke-width="0.100" />
<polyline points="96.820,71.562 97.278,72.020" fill="none" stroke="green" stroke-width="0.100" />
<polyline points="96.618,71.784 96.901,72.067" fill="none" stroke="green" stroke-width="0.100" />
<polyline points="96.406,71.996 96.689,72.279" fill="none" stroke="green" stroke-width="0.100" />
<polyline points="96.194,72.208 96.476,72.491" fill="none" stroke="green" stroke-width="0.100" />
<polyline points="95.926,72.365 96.264,72.703" fill="none" stroke="green" stroke-width="0.100" />
<polyline points="95.502,72.365 95.931,72.795" fill="none" stroke="green" stroke-width="0.100" />
<polyline points="95.078,72.365 95.507,72.795" fill="none" stroke="green" stroke-width="0.100" />
<polyline points="94.654,72.365 95.083,72.795" fill="none" stroke="green" stroke-width="0.100" />
<polyline points="94.229,72.365 94.659,72.795" fill="none" stroke="green" stroke-width="0.100" />
<polyline points="93.805,72.365 94.234,72.795" fill="none" stroke="green" stroke-width="0.100" />
<polyline points="93.381,72.365 93.810,72.795" fill="none" stroke="green" stroke-width="0.100" />
<polyline points="92.956,72.365 93.386,72.795" fill="none" stroke="green" stroke-width="0.100" />
<polyline points="92.532,72.365 92.961,72.795" fill="none" stroke="green" stroke-width="0.100" />
<polyline points="91.735,71.993 92.027,72.285" fill="none" stroke="green" stroke-width="0.100" />
<polyline points="92.108,72.365 92.537,72.795" fill="none" stroke="green" stroke-width="0.100" />
<polyline points="91.286,71.968 92.148,72.830" fill="none" stroke="green" stroke-width="0.100" />
<polyline points="91.015,72.121 91.899,73.005" fill="none" stroke="green" stroke-width="0.100" />
<polyline points="90.845,72.375 91.645,73.175" fill="none" stroke="green" stroke-width="0.100" />
<polyline points="90.819,72.774 91.246,73.201" fill="none" stroke="green" stroke-width="0.100" />
<polyline points="98.445,72.760 98.675,72.990" fill="none" stroke="green" stroke-width="0.100" />
<polyline points="98.021,72.760 98.546,73.285" fill="none" stroke="green" stroke-width="0.100" />
<polyline points="97.597,72.760 98.126,73.290" fill="none" stroke="green" stroke-width="0.100" />
<polyline points="97.173,72.760 97.728,73.315" fill="none" stroke="green" stroke-width="0.100" />
<polyline points="96.820,72.832 97.515,73.527" fill="none" stroke="green" stroke-width="0.100" />
<polyline points="96.801,73.237 96.848,73.284" fill="none" stroke="green" stroke-width="0.100" />
<polyline points="97.020,73.457 97.303,73.740" fill="none" stroke="green" stroke-width="0.100" />
<polyline points="96.808,73.669 97.091,73.952" fill="none" stroke="green" stroke-width="0.100" />
<polyline points="96.596,73.881 96.879,74.164" fill="none" stroke="green" stroke-width="0.100" />
<polyline points="96.384,74.093 96.667,74.376" fill="none" stroke="green" stroke-width="0.100" />
<polyline points="96.172,74.305 96.455,74.588" fill="none" stroke="green" stroke-width="0.100" />
<polyline points="95.808,74.365 96.224,74.782" fill="none" stroke="green" stroke-width="0.100" />
<polyline points="95.384,74.365 95.813,74.795" fill="none" stroke="green" stroke-width="0.100" />
<polyline points="94.959,74.365 95.389,74.795" fill="none" stroke="green" stroke-width="0.100" />
<polyline points="94.535,74.365 94.964,74.795" fill="none" stroke="green" stroke-width="0.100" />
<polyline points="94.111,74.365 94.540,74.795" fill="none" stroke="green" stroke-width="0.100" />
<polyline points="93.686,74.365 94.116,74.795" fill="none" stroke="green" stroke-width="0.100" />
<polyline points="93.262,74.365 93.691,74.795" fill="none" stroke="green" stroke-width="0.100" />
<polyline points="92.838,74.365 93.267,74.795" fill="none" stroke="green" stroke-width="0.100" />
<polyline points="92.414,74.365 92.843,74.795" fill="none" stroke="green" stroke-width="0.100" />
<polyline points="91.572,73.948 92.419,74.795" fill="none" stroke="green" stroke-width="0.100" />
<polyline points="91.199,74.000 92.020,74.821" fill="none" stroke="green" stroke-width="0.100" />
<polyline points="90.958,74.182 91.838,75.062" fill="none" stroke="green" stroke-width="0.100" />
<polyline points="90.817,74.466 91.554,75.203" fill="none" stroke="green" stroke-width="0.100" />
<polyline points="90.908,74.981 91.039,75.112" fill="none" stroke="green" stroke-width="0.100" />
<polyline points="109.326,67.944 109.856,68.474" fill="none" stroke="green" stroke-width="0.100" />
<polyline points="108.964,68.007 109.793,68.836" fill="none" stroke="green" stroke-width="0.100" />
<polyline points="108.728,68.194 109.606,69.072" fill="none" stroke="green" stroke-width="0.100" />
<polyline points="108.475,68.365 109.316,69.207" fill="none" stroke="green" stroke-width="0.100" />
<polyline points="108.050,68.365 108.480,68.795" fill="none" stroke="green" stroke-width="0.100" />
<polyline points="107.626,68.365 108.055,68.795" fill="none" stroke="green" stroke-width="0.100" />
<polyline points="107.202,68.365 107.631,68.795" fill="none" stroke="green" stroke-width="0.100" />
<polyline points="106.778,68.365 107.207,68.795" fill="none" stroke="green" stroke-width="0.100" />
<polyline points="106.353,68.365 106.783,68.795" fill="none" stroke="green" stroke-width="0.100" />
<polyline points="105.929,68.365 106.358,68.795" fill="none" stroke="green" stroke-width="0.100" />
<polyline points="105.505,68.365 105.934,68.795" fill="none" stroke="green" stroke-width="0.100" />
<polyline points="105.081,68.365 105.510,68.795" fill="none" stroke="green" stroke-width="0.100" />
<polyline points="104.656,68.365 105.086,68.795" fill="none" stroke="green" stroke-width="0.100" />
<polyline points="104.232,68.365 104.661,68.795" fill="none" stroke="green" stroke-width="0.100" />
<polyline points="103.808,68.365 104.237,68.795" fill="none" stroke="green" stroke-width="0.100" />
<polyline points="103.383,68.365 103.813,68.795" fill="none" stroke="green" stroke-width="0.100" />
<polyline points="103.105,68.512 103.388,68.795" fill="none" stroke="green" stroke-width="0.100" />
<polyline points="103.544,68.950 103.625,69.031" fill="none" stroke="green" stroke-width="0.100" />
<polyline points="102.893,68.724 103.591,69.421" fill="none" stroke="green" stroke-width="0.100" />
<polyline points="102.681,68.936 103.225,69.480" fill="none" stroke="green" stroke-width="0.100" />
<polyline points="102.271,68.950 102.801,69.480" fill="none" stroke="green" stroke-width="0.100" />
<polyline points="101.855,68.958 102.376,69.480" fill="none" stroke="green" stroke-width="0.100" />
<polyline points="101.745,69.273 101.952,69.480" fill="none" stroke="green" stroke-width="0.100" />
<polyline points="109.326,69.944 109.856,70.474" fill="none" stroke="green" stroke-width="0.100" />
<polyline points="108.964,70.007 109.793,70.836" fill="none" stroke="green" stroke-width="0.100" />
<polyline points="108.728,70.194 109.606,71.072" fill="none" stroke="green" stroke-width="0.100" />
<polyline points="108.380,70.270 109.316,71.207" fill="none" stroke="green" stroke-width="0.100" />
<polyline points="107.955,70.270 108.385,70.700" fill="none" stroke="green" stroke-width="0.100" />
<polyline points="107.531,70.270 107.960,70.700" fill="none" stroke="green" stroke-width="0.100" />
<polyline points="107.107,70.270 107.536,70.700" fill="none" stroke="green" stroke-width="0.100" />
<polyline points="106.683,70.270 107.112,70.700" fill="none" stroke="green" stroke-width="0.100" />
<polyline points="106.258,70.270 106.688,70.700" fill="none" stroke="green" stroke-width="0.100" />
<polyline points="105.834,70.270 106.263,70.700" fill="none" stroke="green" stroke-width="0.100" />
<polyline points="105.410,70.270 105.839,70.700" fill="none" stroke="green" stroke-width="0.100" />
<polyline points="104.986,70.270 105.415,70.700" fill="none" stroke="green" stroke-width="0.100" />
<polyline points="104.561,70.270 104.991,70.700" fill="none" stroke="green" stroke-width="0.100" />
<polyline points="104.137,70.270 104.566,70.700" fill="none" stroke="green" stroke-width="0.100" />
<polyline points="103.713,70.270 104.142,70.700" fill="none" stroke="green" stroke-width="0.100" />
<polyline points="103.238,70.220 103.718,70.700" fill="none" stroke="green" stroke-width="0.100" />
<polyline points="102.814,70.220 103.343,70.750" fill="none" stroke="green" stroke-width="0.100" />
<polyline points="102.390,70.220 102.919,70.750" fill="none" stroke="green" stroke-width="0.100" />
<polyline points="101.966,70.220 102.495,70.750" fill="none" stroke="green" stroke-width="0.100" />
<polyline points="101.745,70.424 102.071,70.750" fill="none" stroke="green" stroke-width="0.100" />
<polyline points="109.326,71.944 109.856,72.474" fill="none" stroke="green" stroke-width="0.100" />
<polyline points="108.964,72.007 109.793,72.836" fill="none" stroke="green" stroke-width="0.100" />
<polyline points="108.728,72.194 109.606,73.072" fill="none" stroke="green" stroke-width="0.100" />
<polyline points="108.475,72.365 109.316,73.207" fill="none" stroke="green" stroke-width="0.100" />
<polyline points="108.050,72.365 108.480,72.795" fill="none" stroke="green" stroke-width="0.100" />
<polyline points="107.626,72.365 108.055,72.795" fill="none" stroke="green" stroke-width="0.100" />
<polyline points="107.202,72.365 107.631,72.795" fill="none" stroke="green" stroke-width="0.100" />
<polyline points="106.778,72.365 107.207,72.795" fill="none" stroke="green" stroke-width="0.100" />
<polyline points="106.353,72.365 106.783,72.795" fill="none" stroke="green" stroke-width="0.100" />
<polyline points="105.929,72.365 106.358,72.795" fill="none" stroke="green" stroke-width="0.100" />
<polyline points="105.505,72.365 105.934,72.795" fill="none" stroke="green" stroke-width="0.100" />
<polyline points="105.081,72.365 105.510,72.795" fill="none" stroke="green" stroke-width="0.100" />
<polyline points="104.656,72.365 105.086,72.795" fill="none" stroke="green" stroke-width="0.100" />
<polyline points="103.357,71.490 104.661,72.795" fill="none" stroke="green" stroke-width="0.100" />
<polyline points="102.933,71.490 103.462,72.020" fill="none" stroke="green" stroke-width="0.100" />
<polyline points="102.508,71.490 103.038,72.020" fill="none" stroke="green" stroke-width="0.100" />
<polyline points="102.084,71.490 102.613,72.020" fill="none" stroke="green" stroke-width="0.100" />
<polyline points="101.756,71.586 102.189,72.020" fill="none" stroke="green" stroke-width="0.100" />
<polyline points="109.718,73.940 109.860,74.082" fill="none" stroke="green" stroke-width="0.100" />
<polyline points="109.294,73.940 109.860,74.506" fill="none" stroke="green" stroke-width="0.100" />
<polyline points="108.870,73.940 109.860,74.930" fill="none" stroke="green" stroke-width="0.100" />
<polyline points="108.580,74.075 109.725,75.220" fill="none" stroke="green" stroke-width="0.100" />
<polyline points="108.446,74.365 109.300,75.220" fill="none" stroke="green" stroke-width="0.100" />
<polyline points="108.022,74.365 108.451,74.795" fill="none" stroke="green" stroke-width="0.100" />
<polyline points="108.580,74.924 108.876,75.220" fill="none" stroke="green" stroke-width="0.100" />
<polyline points="107.598,74.365 108.027,74.795" fill="none" stroke="green" stroke-width="0.100" />
<polyline points="107.173,74.365 107.603,74.795" fill="none" stroke="green" stroke-width="0.100" />
<polyline points="106.749,74.365 107.178,74.795" fill="none" stroke="green" stroke-width="0.100" />
<polyline points="106.325,74.365 106.754,74.795" fill="none" stroke="green" stroke-width="0.100" />
<polyline points="105.901,74.365 106.330,74.795" fill="none" stroke="green" stroke-width="0.100" />
<polyline points="105.476,74.365 105.906,74.795" fill="none" stroke="green" stroke-width="0.100" />
<polyline points="103.447,72.760 103.625,72.938" fill="none" stroke="green" stroke-width="0.100" />
<polyline points="105.052,74.365 105.481,74.795" fill="none" stroke="green" stroke-width="0.100" />
<polyline points="103.023,72.760 103.537,73.275" fill="none" stroke="green" stroke-width="0.100" />
<polyline points="104.628,74.365 105.057,74.795" fill="none" stroke="green" stroke-width="0.100" />
<polyline points="102.599,72.760 104.633,74.795" fill="none" stroke="green" stroke-width="0.100" />
<polyline points="102.174,72.760 104.209,74.795" fill="none" stroke="green" stroke-width="0.100" />
<polyline points="101.792,72.802 102.279,73.290" fill="none" stroke="green" stroke-width="0.100" />
<polyline points="101.745,73.180 101.855,73.290" fill="none" stroke="green" stroke-width="0.100" />
</svg>
