<?xml version="1.0"?>
<!-- Generated by svgof -->
<svg width="93.420mm" height="81.536mm"
     viewBox="-20.000 -61.536 93.420 81.536"
     xmlns="http://www.w3.org/2000/svg"
     xmlns:xlink="http://www.w3.org/1999/xlink">
<rect x="-20.000" y="-61.536" width="93.420" height="81.536" fill="white" />
<polyline points="0.000,0.000 50.000,0.000 53.420,-9.397 15.118,-41.536" fill="none" stroke="blue" stroke-width=".2" />
<circle cx="25.000" cy="0.000" r="10.000" fill="none" stroke="black" stroke-width=".1" />
<circle cx="50.000" cy="0.000" r="10.000" fill="none" stroke="black" stroke-width=".1" stroke-dasharray="2, 1" />
<circle cx="51.710" cy="-4.698" r="10.000" fill="none" stroke="black" stroke-width=".1" />
<circle cx="53.420" cy="-9.397" r="10.000" fill="none" stroke="black" stroke-width=".1" stroke-dasharray="2, 1" />
<circle cx="34.269" cy="-25.467" r="10.000" fill="none" stroke="black" stroke-width=".1" />
<line x1="60.000" y1="-10.000" x2="-10.000" y2="-10.000" fill="none" stroke="red" stroke-width=".1" />
<line x1="47.443" y1="-22.214" x2="37.183" y2="5.977" fill="none" stroke="red" stroke-width=".1" />
<line x1="1.030" y1="-40.304" x2="54.653" y2="4.691" fill="none" stroke="red" stroke-width=".1" />
<line x1="-10.000" y1="-10.000" x2="37.144" y2="-10.000" fill="none" stroke="green" stroke-width=".5" stroke-dasharray="4, 2" />
<line x1="37.144" y1="-10.000" x2="1.030" y2="-40.304" fill="none" stroke="green" stroke-width=".5" stroke-dasharray="4, 2" />
<circle cx="42.998" cy="-10.000" r="1.000" stroke="red" stroke-width=".2" fill="white" />
<circle cx="41.628" cy="-6.237" r="1.000" stroke="red" stroke-width=".2" fill="white" />
<circle cx="37.144" cy="-10.000" r="1.000" fill="green" />
<line x1="60.000" y1="10.000" x2="-10.000" y2="10.000" fill="none" stroke="red" stroke-width=".1" />
<line x1="66.237" y1="-15.374" x2="55.977" y2="12.817" fill="none" stroke="red" stroke-width=".1" />
<line x1="13.885" y1="-55.625" x2="67.509" y2="-10.629" fill="none" stroke="red" stroke-width=".1" />
<line x1="-10.000" y1="10.000" x2="57.002" y2="10.000" fill="none" stroke="green" stroke-width=".5" stroke-dasharray="4, 2" />
<line x1="57.002" y1="10.000" x2="65.212" y2="-12.557" fill="none" stroke="green" stroke-width=".5" stroke-dasharray="4, 2" />
<line x1="65.212" y1="-12.557" x2="13.885" y2="-55.625" fill="none" stroke="green" stroke-width=".5" stroke-dasharray="4, 2" />
<circle cx="65.212" cy="-12.557" r="1.000" fill="green" />
<circle cx="57.002" cy="10.000" r="1.000" fill="green" />
</svg>
