<?xml version="1.0"?>
<!-- Generated by svgof -->
<svg width="149.641mm" height="103.301mm"
     viewBox="-20.000 -83.301 149.641 103.301"
     xmlns="http://www.w3.org/2000/svg"
     xmlns:xlink="http://www.w3.org/1999/xlink">
<rect x="-20.000" y="-83.301" width="149.641" height="103.301" fill="white" />
<polyline points="0.000,0.000 50.000,0.000 84.641,-20.000 109.641,-63.301" fill="none" stroke="blue" stroke-width=".2" />
<circle cx="25.000" cy="0.000" r="10.000" fill="none" stroke="black" stroke-width=".1" />
<circle cx="50.000" cy="0.000" r="10.000" fill="none" stroke="black" stroke-width=".1" stroke-dasharray="2, 1" />
<circle cx="67.321" cy="-10.000" r="10.000" fill="none" stroke="black" stroke-width=".1" />
<circle cx="84.641" cy="-20.000" r="10.000" fill="none" stroke="black" stroke-width=".1" stroke-dasharray="2, 1" />
<circle cx="97.141" cy="-41.651" r="10.000" fill="none" stroke="black" stroke-width=".1" />
<line x1="60.000" y1="-10.000" x2="-10.000" y2="-10.000" fill="none" stroke="red" stroke-width=".1" />
<line x1="88.301" y1="-33.660" x2="36.340" y2="-3.660" fill="none" stroke="red" stroke-width=".1" />
<line x1="105.981" y1="-76.962" x2="70.981" y2="-16.340" fill="none" stroke="red" stroke-width=".1" />
<line x1="-10.000" y1="-10.000" x2="47.321" y2="-10.000" fill="none" stroke="green" stroke-width=".5" stroke-dasharray="4, 2" />
<line x1="47.321" y1="-10.000" x2="77.321" y2="-27.321" fill="none" stroke="green" stroke-width=".5" stroke-dasharray="4, 2" />
<line x1="77.321" y1="-27.321" x2="105.981" y2="-76.962" fill="none" stroke="green" stroke-width=".5" stroke-dasharray="4, 2" />
<circle cx="47.321" cy="-10.000" r="1.000" fill="green" />
<circle cx="77.321" cy="-27.321" r="1.000" fill="green" />
<line x1="60.000" y1="10.000" x2="-10.000" y2="10.000" fill="none" stroke="red" stroke-width=".1" />
<line x1="98.301" y1="-16.340" x2="46.340" y2="13.660" fill="none" stroke="red" stroke-width=".1" />
<line x1="123.301" y1="-66.962" x2="88.301" y2="-6.340" fill="none" stroke="red" stroke-width=".1" />
<line x1="-10.000" y1="10.000" x2="52.679" y2="10.000" fill="none" stroke="green" stroke-width=".5" stroke-dasharray="4, 2" />
<line x1="52.679" y1="10.000" x2="91.962" y2="-12.679" fill="none" stroke="green" stroke-width=".5" stroke-dasharray="4, 2" />
<line x1="91.962" y1="-12.679" x2="123.301" y2="-66.962" fill="none" stroke="green" stroke-width=".5" stroke-dasharray="4, 2" />
<circle cx="91.962" cy="-12.679" r="1.000" fill="green" />
<circle cx="52.679" cy="10.000" r="1.000" fill="green" />
</svg>
